# Blender 3.1.0
# www.blender.org
mtllib ExampleCube_Visual.mtl
o Cube
v 0.900000 0.900000 -1.000000
v 0.900000 1.000000 -0.900000
v 1.000000 0.900000 -0.900000
v 0.900000 -1.000000 -0.900000
v 0.900000 -0.900000 -1.000000
v 1.000000 -0.900000 -0.900000
v 1.000000 0.900000 0.900000
v 0.900000 1.000000 0.900000
v 0.900000 0.900000 1.000000
v 1.000000 -0.900000 0.900000
v 0.900000 -0.900000 1.000000
v 0.900000 -1.000000 0.900000
v -0.900000 0.900000 -1.000000
v -1.000000 0.900000 -0.900000
v -0.900000 1.000000 -0.900000
v -1.000000 -0.900000 -0.900000
v -0.900000 -0.900000 -1.000000
v -0.900000 -1.000000 -0.900000
v -1.000000 0.900000 0.900000
v -0.900000 0.900000 1.000000
v -0.900000 1.000000 0.900000
v -0.900000 -1.000000 0.900000
v -0.900000 -0.900000 1.000000
v -1.000000 -0.900000 0.900000
vn -0.0000 -1.0000 -0.0000
vn -1.0000 -0.0000 -0.0000
vn -0.0000 -0.0000 1.0000
vn -0.0000 1.0000 -0.0000
vn 1.0000 -0.0000 -0.0000
vn 0.5774 0.5774 -0.5774
vn 0.5774 -0.5774 -0.5774
vn 0.5774 0.5774 0.5774
vn 0.5774 -0.5774 0.5774
vn -0.5774 0.5774 -0.5774
vn -0.5774 -0.5774 -0.5774
vn -0.5774 0.5774 0.5774
vn -0.5774 -0.5774 0.5774
vn -0.7071 -0.7071 -0.0000
vn -0.0000 -0.7071 -0.7071
vn 0.7071 -0.0000 -0.7071
vn -0.7071 -0.0000 0.7071
vn 0.7071 -0.0000 0.7071
vn -0.7071 -0.0000 -0.7071
vn -0.0000 0.7071 0.7071
vn 0.7071 0.7071 -0.0000
vn -0.0000 -0.7071 0.7071
vn -0.7071 0.7071 -0.0000
vn -0.0000 0.7071 -0.7071
vn 0.7071 -0.7071 -0.0000
vn -0.0000 -0.0000 -1.0000
vt 0.869990 0.911100
vt 0.869990 0.869990
vt 0.869990 0.869990
vt 0.869990 0.869990
vt 0.911100 0.869990
vt 0.869990 0.869990
vt 0.869990 0.911100
vt 0.869990 0.130010
vt 0.869990 0.130010
vt 0.911100 0.130010
vt 0.911100 0.869990
vt 0.130010 0.869990
vt 0.911100 0.869990
vt 0.911100 0.130010
vt 0.869990 0.130010
vt 0.869990 0.869990
vt 0.869990 0.088900
vt 0.130010 0.130010
vt 0.911100 0.130010
vt 0.869990 0.130010
vt 0.869990 0.088900
vt 0.869990 0.130010
vt 0.130010 0.911100
vt 0.130010 0.869990
vt 0.869990 0.869990
vt 0.088900 0.869990
vt 0.130010 0.869990
vt 0.869990 0.130010
vt 0.088900 0.869990
vt 0.088900 0.130010
vt 0.130010 0.911100
vt 0.130010 0.130010
vt 0.130010 0.869990
vt 0.130010 0.869990
vt 0.088900 0.869990
vt 0.088900 0.130010
vt 0.130010 0.869990
vt 0.130010 0.088900
vt 0.130010 0.130010
vt 0.130010 0.130010
vt 0.130010 0.130010
vt 0.130010 0.088900
vt 0.130010 0.130010
vt 0.088900 0.130010
s 0
usemtl Material
f 18/33/1 4/6/1 12/22/1 22/40/1
f 24/43/2 19/34/2 14/25/2 16/28/2
f 11/20/3 9/16/3 20/37/3 23/41/3
f 2/3/4 15/27/4 21/39/4 8/15/4
f 6/9/5 3/4/5 7/12/5 10/18/5
f 1/1/6 2/3/6 3/5/6
f 4/6/7 5/7/7 6/11/7
f 7/14/8 8/15/8 9/17/8
f 10/19/9 11/21/9 12/22/9
f 13/23/10 14/26/10 15/27/10
f 16/29/11 17/31/11 18/33/11
f 19/36/12 20/38/12 21/39/12
f 22/40/13 23/42/13 24/44/13
f 18/33/14 22/40/14 24/44/14 16/29/14
f 4/6/15 18/33/15 17/31/15 5/7/15
f 3/5/16 6/10/16 5/8/16 1/2/16
f 23/41/17 20/37/17 19/35/17 24/44/17
f 9/16/18 11/20/18 10/19/18 7/13/18
f 13/24/19 17/32/19 16/30/19 14/26/19
f 8/15/20 21/39/20 20/38/20 9/17/20
f 2/3/21 8/15/21 7/14/21 3/5/21
f 22/40/22 12/22/22 11/21/22 23/42/22
f 21/39/23 15/27/23 14/26/23 19/36/23
f 15/27/24 2/3/24 1/1/24 13/23/24
f 12/22/25 4/6/25 6/11/25 10/19/25
f 17/32/26 13/24/26 1/2/26 5/8/26
